<svg width="566" height="164" viewBox="0 0 566 164" fill="none" xmlns="http://www.w3.org/2000/svg">
<path d="M113.97 72.48C109.042 72.48 104.338 71.648 99.8578 69.984C95.4418 68.256 91.9858 66.048 89.4898 63.36L91.6978 59.712C94.0658 62.208 97.2338 64.256 101.202 65.856C105.234 67.392 109.458 68.16 113.874 68.16C120.274 68.16 125.106 66.944 128.37 64.512C131.634 62.08 133.266 58.912 133.266 55.008C133.266 52 132.402 49.6 130.674 47.808C128.946 46.016 126.802 44.64 124.242 43.68C121.682 42.72 118.226 41.728 113.874 40.704C108.946 39.488 104.978 38.304 101.97 37.152C99.0258 36 96.4978 34.24 94.3858 31.872C92.3378 29.44 91.3138 26.208 91.3138 22.176C91.3138 18.912 92.1778 15.936 93.9058 13.248C95.6338 10.496 98.2578 8.32 101.778 6.72C105.362 5.12 109.81 4.32 115.122 4.32C118.834 4.32 122.482 4.864 126.066 5.952C129.65 7.04 132.754 8.512 135.378 10.368L133.554 14.304C130.866 12.448 127.89 11.04 124.626 10.08C121.426 9.12 118.258 8.64 115.122 8.64C108.914 8.64 104.21 9.888 101.01 12.384C97.8098 14.88 96.2098 18.112 96.2098 22.08C96.2098 25.088 97.0738 27.488 98.8018 29.28C100.53 31.072 102.674 32.448 105.234 33.408C107.794 34.368 111.282 35.392 115.698 36.48C120.626 37.696 124.562 38.88 127.506 40.032C130.45 41.184 132.946 42.944 134.994 45.312C137.106 47.616 138.162 50.752 138.162 54.72C138.162 57.984 137.266 60.96 135.474 63.648C133.746 66.336 131.058 68.48 127.41 70.08C123.762 71.68 119.282 72.48 113.97 72.48ZM170.166 21.504C176.374 21.504 181.142 23.104 184.47 26.304C187.798 29.44 189.462 34.08 189.462 40.224V72H184.854V63.072C183.254 66.016 180.918 68.32 177.846 69.984C174.774 71.584 171.094 72.384 166.806 72.384C161.238 72.384 156.822 71.072 153.558 68.448C150.358 65.824 148.758 62.368 148.758 58.08C148.758 53.92 150.23 50.56 153.174 48C156.182 45.376 160.95 44.064 167.478 44.064H184.662V40.032C184.662 35.36 183.382 31.808 180.822 29.376C178.326 26.944 174.646 25.728 169.782 25.728C166.454 25.728 163.254 26.304 160.182 27.456C157.174 28.608 154.614 30.144 152.502 32.064L150.102 28.608C152.598 26.368 155.606 24.64 159.126 23.424C162.646 22.144 166.326 21.504 170.166 21.504ZM167.478 68.448C171.638 68.448 175.158 67.488 178.038 65.568C180.982 63.648 183.19 60.864 184.662 57.216V47.808H167.574C162.646 47.808 159.062 48.704 156.822 50.496C154.646 52.288 153.558 54.752 153.558 57.888C153.558 61.152 154.774 63.744 157.206 65.664C159.638 67.52 163.062 68.448 167.478 68.448ZM271.639 21.504C277.847 21.504 282.711 23.328 286.231 26.976C289.815 30.624 291.607 35.872 291.607 42.72V72H286.807V43.104C286.807 37.472 285.431 33.184 282.679 30.24C279.927 27.296 276.087 25.824 271.159 25.824C265.527 25.824 261.047 27.584 257.719 31.104C254.455 34.624 252.823 39.36 252.823 45.312V72H248.023V43.104C248.023 37.472 246.647 33.184 243.895 30.24C241.143 27.296 237.303 25.824 232.375 25.824C226.743 25.824 222.263 27.584 218.935 31.104C215.671 34.624 214.039 39.36 214.039 45.312V72H209.239V21.888H213.847V32.64C215.511 29.12 217.975 26.4 221.239 24.48C224.567 22.496 228.503 21.504 233.047 21.504C237.591 21.504 241.431 22.528 244.567 24.576C247.767 26.624 250.039 29.632 251.383 33.6C253.047 29.888 255.639 26.944 259.159 24.768C262.743 22.592 266.903 21.504 271.639 21.504ZM336.578 21.504C341.25 21.504 345.474 22.592 349.25 24.768C353.026 26.944 355.97 29.952 358.082 33.792C360.258 37.632 361.346 42.016 361.346 46.944C361.346 51.872 360.258 56.288 358.082 60.192C355.97 64.032 353.026 67.04 349.25 69.216C345.474 71.328 341.25 72.384 336.578 72.384C332.162 72.384 328.162 71.36 324.578 69.312C320.994 67.2 318.21 64.288 316.226 60.576V90.624H311.426V21.888H316.034V33.696C318.018 29.856 320.802 26.88 324.386 24.768C328.034 22.592 332.098 21.504 336.578 21.504ZM336.29 68.064C340.13 68.064 343.586 67.168 346.658 65.376C349.73 63.584 352.13 61.088 353.858 57.888C355.65 54.688 356.546 51.04 356.546 46.944C356.546 42.848 355.65 39.2 353.858 36C352.13 32.8 349.73 30.304 346.658 28.512C343.586 26.72 340.13 25.824 336.29 25.824C332.45 25.824 328.994 26.72 325.922 28.512C322.914 30.304 320.514 32.8 318.722 36C316.994 39.2 316.13 42.848 316.13 46.944C316.13 51.04 316.994 54.688 318.722 57.888C320.514 61.088 322.914 63.584 325.922 65.376C328.994 67.168 332.45 68.064 336.29 68.064ZM392.916 21.504C399.124 21.504 403.892 23.104 407.22 26.304C410.548 29.44 412.212 34.08 412.212 40.224V72H407.604V63.072C406.004 66.016 403.668 68.32 400.596 69.984C397.524 71.584 393.844 72.384 389.556 72.384C383.988 72.384 379.572 71.072 376.308 68.448C373.108 65.824 371.508 62.368 371.508 58.08C371.508 53.92 372.98 50.56 375.924 48C378.932 45.376 383.7 44.064 390.228 44.064H407.412V40.032C407.412 35.36 406.132 31.808 403.572 29.376C401.076 26.944 397.396 25.728 392.532 25.728C389.204 25.728 386.004 26.304 382.932 27.456C379.924 28.608 377.364 30.144 375.252 32.064L372.852 28.608C375.348 26.368 378.356 24.64 381.876 23.424C385.396 22.144 389.076 21.504 392.916 21.504ZM390.228 68.448C394.388 68.448 397.908 67.488 400.788 65.568C403.732 63.648 405.94 60.864 407.412 57.216V47.808H390.324C385.396 47.808 381.812 48.704 379.572 50.496C377.396 52.288 376.308 54.752 376.308 57.888C376.308 61.152 377.524 63.744 379.956 65.664C382.388 67.52 385.812 68.448 390.228 68.448ZM456.469 21.504C462.741 21.504 467.701 23.328 471.349 26.976C474.997 30.624 476.821 35.872 476.821 42.72V72H472.021V43.104C472.021 37.472 470.581 33.184 467.701 30.24C464.885 27.296 460.917 25.824 455.797 25.824C449.909 25.824 445.269 27.584 441.877 31.104C438.485 34.624 436.789 39.36 436.789 45.312V72H431.989V0.767996H436.789V32.352C438.517 28.896 441.077 26.24 444.469 24.384C447.861 22.464 451.861 21.504 456.469 21.504ZM25.0734 163.536C19.8254 163.536 15.0574 162.704 10.7694 161.04C6.54538 159.312 3.05738 156.816 0.305375 153.552L12.4974 139.152C14.2894 141.392 16.0494 143.056 17.7774 144.144C19.5054 145.232 21.2974 145.776 23.1534 145.776C25.5214 145.776 27.3134 145.072 28.5294 143.664C29.8094 142.256 30.4494 140.176 30.4494 137.424V111.888H7.60138V94.8H52.8174V136.08C52.8174 145.232 50.4494 152.112 45.7134 156.72C41.0414 161.264 34.1614 163.536 25.0734 163.536ZM86.0544 108.528C95.2704 108.528 102.31 110.608 107.174 114.768C112.038 118.864 114.47 125.2 114.47 133.776V162H94.3104V155.088C91.8144 160.336 86.8544 162.96 79.4304 162.96C75.2704 162.96 71.7184 162.256 68.7744 160.848C65.8944 159.376 63.6864 157.424 62.1504 154.992C60.6784 152.496 59.9424 149.712 59.9424 146.64C59.9424 141.456 61.9264 137.52 65.8944 134.832C69.8624 132.144 75.8784 130.8 83.9424 130.8H92.6784C91.9744 126.704 88.6784 124.656 82.7904 124.656C80.4224 124.656 78.0224 125.04 75.5904 125.808C73.1584 126.512 71.0784 127.504 69.3504 128.784L62.4384 114.48C65.4464 112.624 69.0624 111.184 73.2864 110.16C77.5744 109.072 81.8304 108.528 86.0544 108.528ZM85.9584 149.904C87.4944 149.904 88.8704 149.488 90.0864 148.656C91.3024 147.824 92.1984 146.576 92.7744 144.912V141.264H87.3984C82.9824 141.264 80.7744 142.736 80.7744 145.68C80.7744 146.896 81.2224 147.92 82.1184 148.752C83.0784 149.52 84.3584 149.904 85.9584 149.904ZM181.927 90.768V162H161.287V157.68C158.151 161.2 153.351 162.96 146.887 162.96C142.279 162.96 138.023 161.872 134.119 159.696C130.279 157.456 127.207 154.256 124.903 150.096C122.663 145.936 121.543 141.136 121.543 135.696C121.543 130.256 122.663 125.488 124.903 121.392C127.207 117.232 130.279 114.064 134.119 111.888C138.023 109.648 142.279 108.528 146.887 108.528C152.711 108.528 157.159 110.032 160.231 113.04V90.768H181.927ZM152.071 146.064C154.567 146.064 156.615 145.168 158.215 143.376C159.815 141.52 160.615 138.96 160.615 135.696C160.615 132.432 159.815 129.904 158.215 128.112C156.615 126.32 154.567 125.424 152.071 125.424C149.575 125.424 147.527 126.32 145.927 128.112C144.327 129.904 143.527 132.432 143.527 135.696C143.527 138.96 144.327 141.52 145.927 143.376C147.527 145.168 149.575 146.064 152.071 146.064ZM191.534 109.488H213.23V162H191.534V109.488ZM202.382 105.264C198.478 105.264 195.31 104.24 192.878 102.192C190.51 100.08 189.326 97.424 189.326 94.224C189.326 91.024 190.51 88.4 192.878 86.352C195.31 84.24 198.478 83.184 202.382 83.184C206.35 83.184 209.518 84.176 211.886 86.16C214.254 88.144 215.438 90.704 215.438 93.84C215.438 97.168 214.254 99.92 211.886 102.096C209.518 104.208 206.35 105.264 202.382 105.264ZM287.052 163.536C279.948 163.536 273.548 162.064 267.852 159.12C262.156 156.112 257.676 151.952 254.412 146.64C251.212 141.264 249.612 135.184 249.612 128.4C249.612 121.616 251.212 115.568 254.412 110.256C257.676 104.88 262.156 100.72 267.852 97.776C273.548 94.768 279.948 93.264 287.052 93.264C293.58 93.264 299.404 94.416 304.524 96.72C309.644 99.024 313.868 102.352 317.196 106.704L302.892 119.472C298.732 114.224 293.836 111.6 288.204 111.6C283.468 111.6 279.66 113.136 276.78 116.208C273.9 119.216 272.46 123.28 272.46 128.4C272.46 133.52 273.9 137.616 276.78 140.688C279.66 143.696 283.468 145.2 288.204 145.2C293.836 145.2 298.732 142.576 302.892 137.328L317.196 150.096C313.868 154.448 309.644 157.776 304.524 160.08C299.404 162.384 293.58 163.536 287.052 163.536ZM380.474 109.488V162H359.834V157.008C357.914 158.992 355.674 160.496 353.114 161.52C350.554 162.48 347.834 162.96 344.954 162.96C338.298 162.96 332.954 160.944 328.922 156.912C324.89 152.816 322.874 146.672 322.874 138.48V109.488H344.57V134.736C344.57 138.32 345.146 140.88 346.298 142.416C347.45 143.952 349.146 144.72 351.386 144.72C353.498 144.72 355.258 143.888 356.666 142.224C358.074 140.496 358.778 137.808 358.778 134.16V109.488H380.474ZM413.617 108.528C422.833 108.528 429.873 110.608 434.737 114.768C439.601 118.864 442.033 125.2 442.033 133.776V162H421.873V155.088C419.377 160.336 414.417 162.96 406.993 162.96C402.833 162.96 399.281 162.256 396.337 160.848C393.457 159.376 391.249 157.424 389.713 154.992C388.241 152.496 387.505 149.712 387.505 146.64C387.505 141.456 389.489 137.52 393.457 134.832C397.425 132.144 403.441 130.8 411.505 130.8H420.241C419.537 126.704 416.241 124.656 410.353 124.656C407.985 124.656 405.585 125.04 403.153 125.808C400.721 126.512 398.641 127.504 396.913 128.784L390.001 114.48C393.009 112.624 396.625 111.184 400.849 110.16C405.137 109.072 409.393 108.528 413.617 108.528ZM413.521 149.904C415.057 149.904 416.433 149.488 417.649 148.656C418.865 147.824 419.761 146.576 420.337 144.912V141.264H414.961C410.545 141.264 408.337 142.736 408.337 145.68C408.337 146.896 408.785 147.92 409.681 148.752C410.641 149.52 411.921 149.904 413.521 149.904ZM487.889 108.528C494.353 108.528 499.537 110.48 503.441 114.384C507.409 118.288 509.393 124.176 509.393 132.048V162H487.697V135.792C487.697 129.776 485.553 126.768 481.265 126.768C478.833 126.768 476.849 127.632 475.313 129.36C473.841 131.024 473.105 133.68 473.105 137.328V162H451.409V109.488H472.049V114.672C474.097 112.624 476.465 111.088 479.153 110.064C481.841 109.04 484.753 108.528 487.889 108.528ZM530.044 136.272C530.044 133.264 530.716 130.768 532.06 128.784C533.404 126.736 535.324 124.528 537.82 122.16C539.42 120.624 540.572 119.376 541.276 118.416C542.044 117.456 542.428 116.432 542.428 115.344C542.428 113.936 541.82 112.848 540.604 112.08C539.388 111.248 537.852 110.832 535.996 110.832C533.948 110.832 532.028 111.44 530.236 112.656C528.444 113.808 527.036 115.376 526.012 117.36L508.924 108.816C511.484 103.952 515.26 100.144 520.252 97.392C525.308 94.64 531.516 93.264 538.876 93.264C546.684 93.264 553.02 94.864 557.884 98.064C562.748 101.264 565.18 105.776 565.18 111.6C565.18 114.288 564.7 116.656 563.74 118.704C562.844 120.688 561.756 122.384 560.476 123.792C559.196 125.136 557.564 126.64 555.58 128.304C553.532 130.096 552.06 131.536 551.164 132.624C550.268 133.712 549.82 134.928 549.82 136.272H530.044ZM539.932 162.96C536.22 162.96 533.18 161.84 530.812 159.6C528.444 157.36 527.26 154.64 527.26 151.44C527.26 148.176 528.444 145.488 530.812 143.376C533.18 141.2 536.22 140.112 539.932 140.112C543.644 140.112 546.684 141.2 549.052 143.376C551.42 145.488 552.604 148.176 552.604 151.44C552.604 154.64 551.42 157.36 549.052 159.6C546.684 161.84 543.644 162.96 539.932 162.96Z" fill="#4F4F4F"/>
</svg>
